<svg width="34" height="34" viewBox="0 0 34 34" fill="none" xmlns="http://www.w3.org/2000/svg">
<path d="M22.7097 14.2095C23.1246 13.7946 23.1246 13.1219 22.7097 12.7069C22.2947 12.292 21.6221 12.292 21.2072 12.7069L14.8751 19.0389L12.793 16.957C12.3781 16.542 11.7054 16.542 11.2904 16.957C10.8755 17.3719 10.8755 18.0446 11.2904 18.4595L14.1238 21.2928C14.5388 21.7078 15.2114 21.7078 15.6263 21.2928L22.7097 14.2095Z" fill="#B1B1B1"/>
<path fill-rule="evenodd" clip-rule="evenodd" d="M17.0812 1.77075H16.9186C13.6484 1.77074 11.0856 1.77072 9.08601 2.03956C7.03929 2.31474 5.42426 2.88897 4.15662 4.15662C2.88897 5.42426 2.31474 7.03929 2.03956 9.08601C1.77072 11.0856 1.77074 13.6484 1.77075 16.9186V17.0812C1.77074 20.3515 1.77072 22.9142 2.03956 24.9138C2.31474 26.9605 2.88897 28.5756 4.15662 29.8433C5.42426 31.1109 7.03929 31.6851 9.08601 31.9603C11.0856 32.2291 13.6484 32.2291 16.9186 32.2291H17.0812C20.3515 32.2291 22.9142 32.2291 24.9138 31.9603C26.9605 31.6851 28.5756 31.1109 29.8433 29.8433C31.1109 28.5756 31.6851 26.9605 31.9603 24.9138C32.2291 22.9142 32.2291 20.3515 32.2291 17.0812V16.9186C32.2291 13.6484 32.2291 11.0856 31.9603 9.08601C31.6851 7.03929 31.1109 5.42426 29.8433 4.15662C28.5756 2.88897 26.9605 2.31474 24.9138 2.03956C22.9142 1.77072 20.3515 1.77074 17.0812 1.77075ZM5.65922 5.65922C6.46622 4.8522 7.55808 4.38911 9.36916 4.14561C11.2108 3.898 13.6308 3.89575 16.9999 3.89575C20.369 3.89575 22.789 3.898 24.6307 4.14561C26.4417 4.38911 27.5335 4.8522 28.3406 5.65922C29.1477 6.46622 29.6108 7.55808 29.8542 9.36916C30.1018 11.2108 30.1041 13.6308 30.1041 16.9999C30.1041 20.369 30.1018 22.789 29.8542 24.6307C29.6108 26.4417 29.1477 27.5335 28.3406 28.3406C27.5335 29.1477 26.4417 29.6108 24.6307 29.8542C22.789 30.1018 20.369 30.1041 16.9999 30.1041C13.6308 30.1041 11.2108 30.1018 9.36916 29.8542C7.55808 29.6108 6.46622 29.1477 5.65922 28.3406C4.8522 27.5335 4.38911 26.4417 4.14561 24.6307C3.898 22.789 3.89575 20.369 3.89575 16.9999C3.89575 13.6308 3.898 11.2108 4.14561 9.36916C4.38911 7.55808 4.8522 6.46622 5.65922 5.65922Z" fill="#B1B1B1"/>
</svg>
