<svg width="47" height="41" viewBox="0 0 47 41" fill="none" xmlns="http://www.w3.org/2000/svg">
<path d="M37.0203 14.6889C36.38 14.6889 35.8608 15.1529 35.8608 15.7251V34.646C35.8608 36.6455 34.04 38.2725 31.8025 38.2725H6.37735C4.13986 38.2725 2.31906 36.6454 2.31906 34.646V11.9255C2.31906 9.92602 4.13986 8.29901 6.37735 8.29901H31.8025C32.4429 8.29901 32.962 7.83509 32.962 7.26288C32.962 6.69067 32.4429 6.22675 31.8025 6.22675H6.37735C2.86082 6.22675 0 8.78314 0 11.9255V34.646C0 37.7883 2.86082 40.3447 6.37735 40.3447H31.8025C35.319 40.3447 38.1798 37.7883 38.1798 34.646V15.7251C38.1798 15.1529 37.6606 14.6889 37.0203 14.6889Z" fill="white"/>
<path d="M45.9493 0.936657C44.5515 -0.312474 42.2772 -0.311965 40.8805 0.936657L21.0196 18.6853C20.993 18.709 20.6935 18.9873 20.6159 19.1432L17.8655 24.6649C17.6702 25.0569 17.7652 25.5158 18.1049 25.819C18.3268 26.0172 18.6235 26.1224 18.9253 26.1224C19.0843 26.1224 19.2445 26.0931 19.3963 26.0327L25.5755 23.575C25.7492 23.5058 26.0611 23.2381 26.0879 23.2143L45.9493 5.46629C46.6265 4.86115 46.9996 4.05677 46.9996 3.20122C46.9996 2.34575 46.6265 1.5412 45.9493 0.936657ZM44.3097 4.00059L24.4482 21.7492C24.4448 21.7523 24.4429 21.7558 24.4397 21.7583L21.212 23.0423L22.6489 20.1581C22.6518 20.155 22.6557 20.1534 22.6591 20.1504L42.5202 2.40193C42.9986 1.97432 43.8324 1.97483 44.3098 2.40235C44.5489 2.61535 44.6806 2.8992 44.6806 3.20122C44.6806 3.50323 44.5487 3.787 44.3097 4.00059Z" fill="white"/>
</svg>
