<svg width="91" height="99" viewBox="0 0 91 99" fill="none" xmlns="http://www.w3.org/2000/svg">
<path d="M44.3964 54.6508H44.5724C44.1544 53.654 43.6081 52.6827 42.9739 51.8028L2.2255 28.6316C0.868936 29.1063 0 30.5267 0 32.6809V68.6097C0 72.3851 2.66181 76.9748 5.94323 78.8625L39.5568 98.1925C41.5513 99.339 43.3185 99.2221 44.3964 98.1085V54.6508ZM23.7656 79.925L17.0561 76.0656V69.0624L23.7656 72.9219V79.925ZM29.4705 64.4399C28.9865 65.1702 28.1616 65.7872 26.9994 66.2838L25.8114 66.722C24.9682 67.0506 24.4182 67.3901 24.1579 67.737C23.8976 68.0729 23.7693 68.5367 23.7693 69.1245V70.0081L17.0598 66.1524V65.1884C17.0598 64.1149 17.2651 63.2788 17.672 62.6873C18.079 62.0848 18.9406 61.5152 20.2568 60.9858L21.4448 60.5294C22.1524 60.2519 22.6657 59.905 22.9883 59.4887C23.322 59.0761 23.4906 58.5723 23.4906 57.9661C23.4906 57.0497 23.1936 56.1624 22.5997 55.308C22.0057 54.4426 21.1734 53.7014 20.1102 53.088C19.1056 52.5111 18.024 52.1095 16.8581 51.8867C15.6922 51.6494 14.4786 51.6019 13.2137 51.7407V45.5663C14.7133 45.8767 16.0808 46.2601 17.3201 46.7092C18.5593 47.1583 19.7546 47.717 20.9058 48.3778C23.9306 50.1159 26.2331 52.0985 27.8206 54.3185C29.4082 56.5275 30.2001 58.8863 30.2001 61.3911C30.2001 62.6763 29.9581 63.6914 29.4742 64.4362L29.4705 64.4399ZM86.3217 21.5518L51.3772 1.41853C48.0958 -0.472843 42.7759 -0.472843 39.4944 1.41853L4.55 21.5518C1.75254 23.1656 1.3419 25.6303 3.31809 27.4961L42.1012 49.5499C44.2388 50.083 46.6842 50.0793 48.8181 49.539L87.6416 27.4121C89.5188 25.5572 89.0788 23.1401 86.3217 21.5518ZM46.7026 29.4751L45.8593 29.0041C44.917 28.4783 44.3158 27.8831 44.0554 27.2222C43.7841 26.5541 43.8281 25.4915 44.1911 24.031L44.5394 22.7202C44.7411 21.9388 44.7631 21.2998 44.5981 20.8033C44.4477 20.2957 44.1104 19.8977 43.5825 19.602C42.7795 19.1529 41.8153 18.9922 40.6934 19.1164C39.5604 19.2369 38.3909 19.6312 37.1809 20.3067C36.0444 20.942 35.0104 21.7343 34.0792 22.691C33.1369 23.6403 32.3303 24.7248 31.6557 25.9479L26.2441 22.9283C27.4613 21.7124 28.6566 20.6463 29.8298 19.7334C31.0031 18.8206 32.246 18.0027 33.5512 17.2725C36.9756 15.3592 40.1617 14.2236 43.1095 13.8621C46.0426 13.4934 48.6091 13.9206 50.8016 15.1474C51.9272 15.7754 52.6641 16.4911 53.0124 17.298C53.3498 18.0976 53.3681 19.1492 53.0711 20.4564L52.7045 21.7562C52.4625 22.6873 52.4112 23.3555 52.5541 23.7645C52.6825 24.1661 53.0088 24.513 53.5257 24.8014L54.303 25.2323L46.7026 29.4751ZM55.3883 34.3204L49.2544 30.8991L56.8585 26.6563L62.9924 30.0776L55.3883 34.3204ZM88.6535 28.5878L48.1031 51.6969C47.4322 52.6097 46.8566 53.6211 46.4203 54.6654V97.8967C47.4725 99.2039 49.3277 99.4084 51.4432 98.1925L85.0568 78.8625C88.3382 76.9748 91 72.3851 91 68.6097V32.6809C91 30.4609 90.0834 29.0187 88.6535 28.5878ZM71.7881 77.9022L65.0786 81.758V74.7548L71.7881 70.8954V77.9022ZM77.493 55.8594C77.009 57.1483 76.1841 58.7074 75.0218 60.5476L73.8339 62.3514C72.9907 63.6476 72.4407 64.6225 72.1804 65.2687C71.9201 65.9041 71.7917 66.5175 71.7917 67.1053V67.989L65.0822 71.8447V70.8808C65.0822 69.8073 65.2876 68.7375 65.6945 67.6749C66.1015 66.6015 66.9631 65.0424 68.2793 63.0049L69.4672 61.1793C70.1749 60.0912 70.6882 59.1528 71.0108 58.3641C71.3444 57.5682 71.5131 56.8708 71.5131 56.2646C71.5131 55.3482 71.2161 54.8041 70.6222 54.6325C70.0282 54.4499 69.1959 54.6654 68.1327 55.2788C67.1281 55.8557 66.0465 56.7028 64.8806 57.8164C63.7147 58.9191 62.5011 60.2665 61.2362 61.8584V55.6804C62.7357 54.2674 64.1033 53.0734 65.3425 52.0985C66.5818 51.1236 67.777 50.3057 68.9283 49.6412C71.9531 47.9032 74.2556 47.235 75.8431 47.633C77.4307 48.02 78.2226 49.4659 78.2226 51.9707C78.2226 53.256 77.9806 54.5485 77.4967 55.8484L77.493 55.8594Z" fill="white"/>
</svg>
